<?xml version="1.0" encoding="UTF-8" standalone="no"?>
<svg
   xmlns:osb="http://www.openswatchbook.org/uri/2009/osb"
   xmlns:dc="http://purl.org/dc/elements/1.1/"
   xmlns:cc="http://creativecommons.org/ns#"
   xmlns:rdf="http://www.w3.org/1999/02/22-rdf-syntax-ns#"
   xmlns:svg="http://www.w3.org/2000/svg"
   xmlns="http://www.w3.org/2000/svg"
   xmlns:sodipodi="http://sodipodi.sourceforge.net/DTD/sodipodi-0.dtd"
   xmlns:inkscape="http://www.inkscape.org/namespaces/inkscape"
   inkscape:version="1.0 (4035a4fb49, 2020-05-01)"
   sodipodi:docname="icon.svg"
   xml:space="preserve"
   enable-background="new 0 0 401.98 559.472"
   viewBox="0 0 401.98 559.472"
   height="559.472px"
   width="401.98px"
   y="0px"
   x="0px"
   id="レイヤー_1"
   version="1.1"><metadata
   id="metadata692"><rdf:RDF><cc:Work
       rdf:about=""><dc:format>image/svg+xml</dc:format><dc:type
         rdf:resource="http://purl.org/dc/dcmitype/StillImage" /><dc:title /></cc:Work></rdf:RDF></metadata><defs
   id="defs690"><linearGradient
     osb:paint="solid"
     id="linearGradient1104"><stop
       id="stop1102"
       offset="0"
       style="stop-color:#800000;stop-opacity:1;" /></linearGradient></defs><sodipodi:namedview
   inkscape:snap-page="false"
   inkscape:snap-grids="false"
   inkscape:current-layer="layer5"
   inkscape:window-maximized="1"
   inkscape:window-y="0"
   inkscape:window-x="0"
   inkscape:cy="104.42604"
   inkscape:cx="452.85395"
   inkscape:zoom="0.63899535"
   showgrid="false"
   id="namedview688"
   inkscape:window-height="983"
   inkscape:window-width="1920"
   inkscape:pageshadow="2"
   inkscape:pageopacity="0"
   guidetolerance="10"
   gridtolerance="10"
   objecttolerance="10"
   borderopacity="1"
   bordercolor="#666666"
   pagecolor="#ffffff"
   inkscape:document-rotation="0" />
<path
   id="path633"
   d="  M10.634,300.493c0.764,15.751,16.499,8.463,23.626,3.539c6.765-4.675,8.743-0.789,9.337-10.015  c0.389-6.064,1.088-12.128,0.744-18.216c-10.23-0.927-21.357,1.509-29.744,7.602C10.277,286.542,2.177,296.561,10.634,300.493"
   stroke-linecap="round"
   stroke-width="3"
   stroke="#000000"
   fill="#F6D2A2"
   clip-rule="evenodd"
   fill-rule="evenodd" />
<path
   id="path635"
   d="  M10.634,300.493c2.29-0.852,4.717-1.457,6.271-3.528"
   stroke-linecap="round"
   stroke-width="3"
   stroke="#000000"
   fill="#C6B198"
   clip-rule="evenodd"
   fill-rule="evenodd" />
<path
   id="path637"
   d="  M46.997,112.853C-13.3,95.897,31.536,19.189,79.956,50.74L46.997,112.853z"
   stroke-linecap="round"
   stroke-width="3"
   stroke="#000000"
   fill="#6AD7E5"
   clip-rule="evenodd"
   fill-rule="evenodd" />
<path
   id="path639"
   d="  M314.895,44.984c47.727-33.523,90.856,42.111,35.388,61.141L314.895,44.984z"
   stroke-linecap="round"
   stroke-width="3"
   stroke="#000000"
   fill="#6AD7E5"
   clip-rule="evenodd"
   fill-rule="evenodd" />
<path
   id="path641"
   d="  M325.161,494.343c12.123,7.501,34.282,30.182,16.096,41.18c-17.474,15.999-27.254-17.561-42.591-22.211  C305.271,504.342,313.643,496.163,325.161,494.343z"
   stroke-linecap="round"
   stroke-width="3"
   stroke="#000000"
   fill="#F6D2A2"
   clip-rule="evenodd"
   fill-rule="evenodd" />
<path
   id="path643"
   d="  M341.257,535.522c-2.696-5.361-3.601-11.618-8.102-15.939"
   stroke-linecap="round"
   stroke-width="3"
   stroke="#000000"
   fill="none"
   clip-rule="evenodd"
   fill-rule="evenodd" />
<path
   id="path645"
   d="  M108.579,519.975c-14.229,2.202-22.238,15.039-34.1,21.558c-11.178,6.665-15.454-2.134-16.461-3.92  c-1.752-0.799-1.605,0.744-4.309-1.979c-10.362-16.354,10.797-28.308,21.815-36.432C90.87,496.1,100.487,509.404,108.579,519.975z"
   stroke-linecap="round"
   stroke-width="3"
   stroke="#000000"
   fill="#F6D2A2"
   clip-rule="evenodd"
   fill-rule="evenodd" />
<path
   id="path647"
   d="  M58.019,537.612c0.542-6.233,5.484-10.407,7.838-15.677"
   stroke-linecap="round"
   stroke-width="3"
   stroke="#000000"
   fill="none"
   clip-rule="evenodd"
   fill-rule="evenodd" />
<path
   id="path649"
   d="M49.513,91.667c-7.955-4.208-13.791-9.923-8.925-19.124  c4.505-8.518,12.874-7.593,20.83-3.385L49.513,91.667z"
   clip-rule="evenodd"
   fill-rule="evenodd" />
<path
   id="path651"
   d="M337.716,83.667c7.955-4.208,13.791-9.923,8.925-19.124  c-4.505-8.518-12.874-7.593-20.83-3.385L337.716,83.667z"
   clip-rule="evenodd"
   fill-rule="evenodd" />
<path
   id="path653"
   d="  M392.475,298.493c-0.764,15.751-16.499,8.463-23.626,3.539c-6.765-4.675-8.743-0.789-9.337-10.015  c-0.389-6.064-1.088-12.128-0.744-18.216c10.23-0.927,21.357,1.509,29.744,7.602C392.831,284.542,400.932,294.561,392.475,298.493"
   stroke-linecap="round"
   stroke-width="3"
   stroke="#000000"
   fill="#F6D2A2"
   clip-rule="evenodd"
   fill-rule="evenodd" />
<path
   id="path655"
   d="  M392.475,298.493c-2.29-0.852-4.717-1.457-6.271-3.528"
   stroke-linecap="round"
   stroke-width="3"
   stroke="#000000"
   fill="#C6B198"
   clip-rule="evenodd"
   fill-rule="evenodd" />
<g
   id="g659">
	<path
   sodipodi:nodetypes="ccccccccc"
   id="path657"
   d="m 195.512,13.124 c 60.365,0 116.953,8.633 146.452,66.629 26.478,65.006 17.062,135.104 21.1,203.806 3.468,58.992 11.157,127.145 -16.21,181.812 -28.79,57.514 -100.73,71.982 -160,69.863 C 140.299,533.568 84.06,518.38 57.785,475.845 26.959,425.945 41.553,351.747 43.792,296.223 46.444,230.452 25.977,164.481 47.584,100.122 69.999,33.359 130.451,18.271 195.512,13.124"
   stroke-linecap="round"
   stroke-width="3"
   stroke="#000000"
   fill="#6ad7e5"
   clip-rule="evenodd"
   fill-rule="evenodd" />
</g>
<path
   id="path661"
   d="  M206.169,94.16c10.838,63.003,113.822,46.345,99.03-17.197C291.935,19.983,202.567,35.755,206.169,94.16"
   stroke-linecap="round"
   stroke-width="2.9081"
   stroke="#000000"
   fill="#FFFFFF"
   clip-rule="evenodd"
   fill-rule="evenodd" />
<path
   id="path663"
   d="  M83.103,104.35c14.047,54.85,101.864,40.807,98.554-14.213C177.691,24.242,69.673,36.957,83.103,104.35"
   stroke-linecap="round"
   stroke-width="2.8214"
   stroke="#000000"
   fill="#FFFFFF"
   clip-rule="evenodd"
   fill-rule="evenodd" />
<path
   id="path665"
   d="  M218.594,169.762c0.046,8.191,1.861,17.387,0.312,26.101c-2.091,3.952-6.193,4.37-9.729,5.967c-4.89-0.767-9.002-3.978-10.963-8.552  c-1.255-9.946,0.468-19.576,0.785-29.526L218.594,169.762z"
   stroke-linecap="round"
   stroke-width="3"
   stroke="#000000"
   fill="#FFFFFF"
   clip-rule="evenodd"
   fill-rule="evenodd" />
<g
   id="g671">
	<ellipse
   id="ellipse667"
   ry="16.062"
   rx="14.829"
   cy="95.404"
   cx="107.324"
   clip-rule="evenodd"
   fill-rule="evenodd" />
	<ellipse
   id="ellipse669"
   ry="4.082"
   rx="3.496"
   cy="99.029"
   cx="114.069"
   fill="#FFFFFF"
   clip-rule="evenodd"
   fill-rule="evenodd" />
</g>
<g
   id="g677">
	<ellipse
   id="ellipse673"
   ry="16.062"
   rx="14.582"
   cy="91.404"
   cx="231.571"
   clip-rule="evenodd"
   fill-rule="evenodd" />
	<ellipse
   id="ellipse675"
   ry="4.082"
   rx="3.438"
   cy="95.029"
   cx="238.204"
   fill="#FFFFFF"
   clip-rule="evenodd"
   fill-rule="evenodd" />
</g>
<path
   id="path679"
   d="  M176.217,168.87c-6.47,15.68,3.608,47.035,21.163,23.908c-1.255-9.946,0.468-19.576,0.785-29.526L176.217,168.87z"
   stroke-linecap="round"
   stroke-width="3"
   stroke="#000000"
   fill="#FFFFFF"
   clip-rule="evenodd"
   fill-rule="evenodd" />
<g
   id="g685">
	<path
   id="path681"
   d="   M178.431,138.673c-12.059,1.028-21.916,15.366-15.646,26.709c8.303,15.024,26.836-1.329,38.379,0.203   c13.285,0.272,24.17,14.047,34.84,2.49c11.867-12.854-5.109-25.373-18.377-30.97L178.431,138.673z"
   stroke-linecap="round"
   stroke-width="3"
   stroke="#231F20"
   fill="#F6D2A2"
   clip-rule="evenodd"
   fill-rule="evenodd" />
	<path
   id="path683"
   d="M176.913,138.045c-0.893-20.891,38.938-23.503,43.642-6.016   C225.247,149.475,178.874,153.527,176.913,138.045C175.348,125.682,176.913,138.045,176.913,138.045z"
   clip-rule="evenodd"
   fill-rule="evenodd" />
</g>
<g
   inkscape:label="suite 1"
   id="layer3"
   inkscape:groupmode="layer"><path
     sodipodi:nodetypes="ccccc"
     id="path109"
     d="m 38.419523,203.0972 c 0,0 105.880237,50.01978 158.927817,49.66741 48.44254,-2.30344 163.87558,-53.87325 163.87558,-53.87325 0,0 -104.51182,178.26609 -161.98462,181.65218 C 148.88192,373.84209 38.419523,203.0972 38.419523,203.0972 Z"
     style="fill:#ffffff;stroke:#000000;stroke-width:1px;stroke-linecap:butt;stroke-linejoin:miter;stroke-opacity:1" /><path
     sodipodi:nodetypes="cccccc"
     id="path115"
     d="m 220.57753,367.70006 -0.43138,-119.46622 -43.78395,1.2398 0.51824,118.8071 20.89806,26.00526 z"
     style="fill:none;stroke:#373737;stroke-width:1px;stroke-linecap:butt;stroke-linejoin:miter;stroke-opacity:1" /></g><g
   inkscape:label="Layer 1"
   id="layer1"
   inkscape:groupmode="layer"><path
     inkscape:connector-curvature="0"
     d="m 213.62076,230.03342 c 1.98375,-0.66125 3.56203,-1.82585 5.03913,-3.12487 2.0118,-1.76924 3.62451,-3.85864 5.30516,-5.89237 2.94981,-3.56953 6.01495,-7.02149 10.13752,-9.49947 6.37845,-3.83404 13.44499,-5.09333 20.87644,-4.91636 1.98579,0.0473 3.49772,1.17063 4.78279,2.5191 1.88321,1.97609 3.08714,4.32044 4.06121,6.77514 2.30693,5.81349 3.48669,11.85918 4.10231,18.01036 0.6699,6.69346 0.72371,13.39508 0.007,20.08753 -0.66898,6.2454 -1.80386,12.40661 -4.29144,18.27751 -1.0732,2.53276 -2.43808,4.90563 -4.58799,6.81369 -1.49182,1.32397 -3.2237,1.96927 -5.2919,1.92816 -7.19534,-0.14313 -14.04845,-1.39854 -20.14169,-5.25681 -3.39715,-2.15109 -6.10828,-4.94231 -8.59607,-7.95621 -2.03278,-2.4627 -4.00321,-4.97753 -6.42478,-7.13225 -1.36804,-1.21733 -2.84519,-2.28805 -4.56185,-3.0566 -0.57399,-0.25691 -0.92373,-0.29582 -1.29592,0.30707 -0.54583,0.8842 -1.45033,1.26797 -2.55056,1.26714 -7.90776,-0.006 -15.81552,-0.006 -23.72326,-0.002 -1.00931,0 -1.88741,-0.31424 -2.4159,-1.1148 -0.41655,-0.63101 -0.79657,-0.46743 -1.31799,-0.21368 -2.31657,1.12715 -4.22312,2.72883 -5.87146,4.58716 -2.30827,2.60239 -4.47975,5.31221 -6.80826,7.89799 -5.56109,6.17544 -12.71278,9.52216 -21.25773,10.30189 -1.58021,0.14421 -3.16544,0.24053 -4.74892,0.35208 -2.99784,0.21117 -5.30936,-0.88294 -7.05958,-3.16753 -2.63371,-3.43776 -4.22947,-7.29915 -5.33651,-11.35518 -2.28279,-8.36384 -2.90143,-16.89449 -2.71371,-25.48811 0.15199,-6.95721 0.91395,-13.85034 2.92236,-20.57993 1.05426,-3.53242 2.37794,-6.95914 4.61361,-10.01502 0.61625,-0.84236 1.31057,-1.62071 2.14648,-2.27621 1.28343,-1.00639 2.70855,-1.56934 4.44523,-1.56354 5.69293,0.0191 11.20656,0.83301 16.44991,2.98959 4.93134,2.02824 8.66666,5.41987 12.01125,9.26348 1.94043,2.22999 3.65874,4.6238 5.70373,6.77604 1.49962,1.57822 3.16354,2.96606 5.15566,3.98504 0.50951,0.26062 0.74211,0.31957 0.88237,-0.3835 0.39204,-1.96532 1.56623,-2.80195 3.70677,-2.80229 7.47445,-0.002 14.94891,-0.002 22.42339,0 2.6372,0 3.5892,0.74781 4.11079,3.2186 0.0274,0.12944 0.0654,0.25694 0.11255,0.44035 z"
     id="path7"
     style="stroke-width:0.209884" /></g><g
   inkscape:groupmode="layer"
   id="layer2"
   inkscape:label="suite"><path
     sodipodi:nodetypes="cccccccc"
     id="path74"
     d="m 38.419523,203.0972 c 0,0 123.476217,177.96968 160.818777,177.44634 31.52627,-2.49453 161.98462,-181.65218 161.98462,-181.65218 0,0 -2.54841,87.18842 6.32248,132.12094 0,0 3.7005,43.67547 -5.49169,92.90675 C 270.05512,474.57172 113.71169,459.1625 40.750938,415.71237 37.65047,378.06327 44.359652,311.61401 44.359652,311.61401 44.341,275.801 38.419523,203.0972 38.419523,203.0972 Z"
     style="fill:#000000;stroke:#000000;stroke-width:1px;stroke-linecap:butt;stroke-linejoin:miter;stroke-opacity:1" /><circle
     r="9.990365"
     cy="284.87119"
     cx="198.89482"
     id="path76"
     style="fill:#000000" /><circle
     style="fill:#000000"
     id="path76-3"
     cx="198.85051"
     cy="324.02496"
     r="9.990365" /><circle
     r="9.990365"
     cy="361.22488"
     cx="197.01117"
     id="path76-3-6"
     style="fill:#000000" /><path
     sodipodi:nodetypes="ccccc"
     id="path111"
     d="m 363.46358,273.95026 11.00128,1.39697 c -5.95063,12.51886 -1.93934,28.68071 -1.93934,28.68071 l -7.94553,-3.9967 z"
     style="fill:#000000;stroke:#000000;stroke-width:1px;stroke-linecap:butt;stroke-linejoin:miter;stroke-opacity:1" /><path
     sodipodi:nodetypes="ccccc"
     id="path113"
     d="m 22.046195,279.02412 c 9.313732,8.88479 8.759162,27.85463 8.759162,27.85463 l 11.338966,-6.0895 0.444209,-25.05481 c -8.425256,-0.87107 -20.542337,3.28968 -20.542337,3.28968 z"
     style="fill:#000000;stroke:#000000;stroke-width:1px;stroke-linecap:butt;stroke-linejoin:miter;stroke-opacity:1" /></g><g
   style="display:inline;opacity:0.355312"
   inkscape:label="suite 2"
   id="layer4"
   inkscape:groupmode="layer" /><g
   style="display:inline"
   inkscape:label="suite 3"
   id="layer5"
   inkscape:groupmode="layer" /></svg>
